P2
# feep.pgm
24 7
1
0  0  0  0  0  0  0  0  0  0  0  0  0  0  0  0  0  0  0  0  0  0  0  0
0  1  1  1  1  0  0  1  1  1  1  0  0  1  1  1  1  0  0  1  1  1  1  0
0  1  0  0  0  0  0  1  0  0  0  0  0  1  0  0  0  0  0  1  0  0  1  0
0  1  1  1  0  0  0  1  1  1  0  0  0  1  1  1  0  0  0  1  1  1  1  0
0  1  0  0  0  0  0  1  0  0  0  0  0  1  0  0  0  0  0  1  0  0  0  0
0  1  0  0  0  0  0  1  1  1  1  0  0  1  1  1  1  0  0  1  0  0  0  0
0  0  0  0  0  0  0  0  0  0  0  0  0  0  0  0  0  0  0  0  0  0  0  0
